<mxfile host="app.diagrams.net" modified="2023-05-12T18:38:24.588Z" agent="Mozilla/5.0 (Windows NT 10.0; Win64; x64) AppleWebKit/537.36 (KHTML, like Gecko) Chrome/112.0.0.0 Safari/537.36" version="21.3.0" etag="coArfio3EpR-C2fbgkJF" type="github">
  <diagram name="PÃ¡gina-1" id="hnbNFZBUz5HdbDnjLZ3-">
    <mxGraphModel>
      <root>
        <mxCell id="0" />
        <mxCell id="1" parent="0" />
      </root>
    </mxGraphModel>
  </diagram>
</mxfile>
